# xmcd
#
# Track frame offsets:
#	150
#	18450
#	36167
#	55590
#	77782
#	94330
#	117442
#	137682
#	160355
#	183872
#	203840
#	226185
#	248097
#	275717
#	293205
#	314927
#
# Disc length: 4464
#
# Revision: 1
# Processed by: cddbd v1.5.1PL0 Copyright (c) Steve Scherf et al.
# Submitted via: dBpowerAMP V4.0
# Normalized: r0:TDELIM( - )
#
DISCID=e7116e10
DTITLE=Various Artist - Shockers, CD1
DYEAR=1900
DGENRE=Hardhouse
TTITLE0=Steve Stoll - Begin With Dub
TTITLE1=Warmduscher - Auf Die Fresse
TTITLE2=Misjah and Tim - Acces (original)
TTITLE3=Insider - Boots On The Run
TTITLE4=Green Velvet - Land Of The Lost
TTITLE5=Woody McBride - Dr. J McBride
TTITLE6=Da Goose - Phonky Phone (Lambda and Da Goose remix)
TTITLE7=Jark Prongo - Movin' Thru Your System (original)
TTITLE8=Green Velvet - Destination Unknown
TTITLE9=Peaky Pounder - Kylpyvaatoo
TTITLE10=Point Blank - Drums
TTITLE11=Eva - Never B So Honest
TTITLE12=Armin - Virgo (continuess cool mix)
TTITLE13=Misjah - Knallenheid
TTITLE14=K90 - Species
TTITLE15=Mark Tyler - Rush
EXTD=
EXTT0=
EXTT1=
EXTT2=
EXTT3=
EXTT4=
EXTT5=
EXTT6=
EXTT7=
EXTT8=
EXTT9=
EXTT10=
EXTT11=
EXTT12=
EXTT13=
EXTT14=
EXTT15=
PLAYORDER=
